<?xml version="1.0" encoding="utf-8" standalone="no"?>
<!DOCTYPE svg PUBLIC "-//W3C//DTD SVG 1.1//EN"
  "http://www.w3.org/Graphics/SVG/1.1/DTD/svg11.dtd">
<svg xmlns:xlink="http://www.w3.org/1999/xlink" width="595.303125pt" height="337.974688pt" viewBox="0 0 595.303125 337.974688" xmlns="http://www.w3.org/2000/svg" version="1.1">
 <metadata>
  <rdf:RDF xmlns:dc="http://purl.org/dc/elements/1.1/" xmlns:cc="http://creativecommons.org/ns#" xmlns:rdf="http://www.w3.org/1999/02/22-rdf-syntax-ns#">
   <cc:Work>
    <dc:type rdf:resource="http://purl.org/dc/dcmitype/StillImage"/>
    <dc:date>2023-04-02T13:47:30.798614</dc:date>
    <dc:format>image/svg+xml</dc:format>
    <dc:creator>
     <cc:Agent>
      <dc:title>Matplotlib v3.7.1, https://matplotlib.org/</dc:title>
     </cc:Agent>
    </dc:creator>
   </cc:Work>
  </rdf:RDF>
 </metadata>
 <defs>
  <style type="text/css">*{stroke-linejoin: round; stroke-linecap: butt}</style>
 </defs>
 <g id="figure_1">
  <g id="patch_1">
   <path d="M -0 337.974688 
L 595.303125 337.974688 
L 595.303125 0 
L -0 0 
z
" style="fill: #ffffff"/>
  </g>
  <g id="axes_1">
   <g id="patch_2">
    <path d="M 30.103125 299.998125 
L 588.103125 299.998125 
L 588.103125 22.798125 
L 30.103125 22.798125 
z
" style="fill: #ffffff"/>
   </g>
   <g id="matplotlib.axis_1">
    <g id="xtick_1">
     <g id="line2d_1">
      <path d="M 309.103125 299.998125 
L 309.103125 22.798125 
" clip-path="url(#p68e804dab3)" style="fill: none; stroke-dasharray: 2.96,1.28; stroke-dashoffset: 0; stroke: #b0b0b0; stroke-opacity: 0.25; stroke-width: 0.8"/>
     </g>
     <g id="line2d_2">
      <defs>
       <path id="m1d3cff7db9" d="M 0 0 
L 0 3.5 
" style="stroke: #000000; stroke-width: 0.8"/>
      </defs>
      <g>
       <use xlink:href="#m1d3cff7db9" x="309.103125" y="299.998125" style="stroke: #000000; stroke-width: 0.8"/>
      </g>
     </g>
     <g id="text_1">
      <!-- 1 -->
      <g transform="translate(305.921875 314.596563) scale(0.1 -0.1)">
       <defs>
        <path id="DejaVuSans-31" d="M 794 531 
L 1825 531 
L 1825 4091 
L 703 3866 
L 703 4441 
L 1819 4666 
L 2450 4666 
L 2450 531 
L 3481 531 
L 3481 0 
L 794 0 
L 794 531 
z
" transform="scale(0.015625)"/>
       </defs>
       <use xlink:href="#DejaVuSans-31"/>
      </g>
     </g>
    </g>
    <g id="text_2">
     <!-- Α/Α πρότασης -->
     <g transform="translate(274.167187 328.674688) scale(0.1 -0.1)">
      <defs>
       <path id="DejaVuSans-391" d="M 2188 4044 
L 1331 1722 
L 3047 1722 
L 2188 4044 
z
M 1831 4666 
L 2547 4666 
L 4325 0 
L 3669 0 
L 3244 1197 
L 1141 1197 
L 716 0 
L 50 0 
L 1831 4666 
z
" transform="scale(0.015625)"/>
       <path id="DejaVuSans-2f" d="M 1625 4666 
L 2156 4666 
L 531 -594 
L 0 -594 
L 1625 4666 
z
" transform="scale(0.015625)"/>
       <path id="DejaVuSans-20" transform="scale(0.015625)"/>
       <path id="DejaVuSans-3c0" d="M 231 3500 
L 3584 3500 
L 3584 2925 
L 3144 2925 
L 3144 775 
Q 3144 550 3220 451 
Q 3297 353 3469 353 
Q 3516 353 3584 361 
Q 3653 369 3675 372 
L 3675 -44 
Q 3566 -84 3450 -103 
Q 3334 -122 3219 -122 
Q 2844 -122 2700 83 
Q 2556 288 2556 838 
L 2556 2925 
L 1266 2925 
L 1266 0 
L 678 0 
L 678 2925 
L 231 2925 
L 231 3500 
z
" transform="scale(0.015625)"/>
       <path id="DejaVuSans-3c1" d="M 863 2875 
Q 1053 3194 1525 3475 
Q 1709 3584 2278 3584 
Q 2916 3584 3314 3078 
Q 3713 2572 3713 1747 
Q 3713 922 3314 415 
Q 2916 -91 2278 -91 
Q 1894 -91 1617 61 
Q 1341 213 1159 525 
L 1159 -1331 
L 581 -1331 
L 581 1716 
Q 581 2438 863 2875 
z
M 3116 1747 
Q 3116 2381 2855 2742 
Q 2594 3103 2138 3103 
Q 1681 3103 1420 2742 
Q 1159 2381 1159 1747 
Q 1159 1113 1420 752 
Q 1681 391 2138 391 
Q 2594 391 2855 752 
Q 3116 1113 3116 1747 
z
" transform="scale(0.015625)"/>
       <path id="DejaVuSans-3cc" d="M 2426 5119 
L 3048 5119 
L 2030 3944 
L 1551 3944 
L 2426 5119 
z
M 1959 3097 
Q 1497 3097 1228 2736 
Q 959 2375 959 1747 
Q 959 1119 1226 758 
Q 1494 397 1959 397 
Q 2419 397 2687 759 
Q 2956 1122 2956 1747 
Q 2956 2369 2687 2733 
Q 2419 3097 1959 3097 
z
M 1959 3584 
Q 2709 3584 3137 3096 
Q 3566 2609 3566 1747 
Q 3566 888 3137 398 
Q 2709 -91 1959 -91 
Q 1206 -91 779 398 
Q 353 888 353 1747 
Q 353 2609 779 3096 
Q 1206 3584 1959 3584 
z
" transform="scale(0.015625)"/>
       <path id="DejaVuSans-3c4" d="M 2319 638 
Q 2431 488 2769 488 
L 3047 488 
L 3047 0 
L 2700 0 
Q 2138 0 1881 300 
Q 1625 606 1625 1269 
L 1625 2925 
L 313 2925 
L 313 3500 
L 3541 3500 
L 3541 2925 
L 2213 2925 
L 2213 1234 
Q 2213 781 2319 638 
z
" transform="scale(0.015625)"/>
       <path id="DejaVuSans-3b1" d="M 2644 1628 
L 2506 2350 
Q 2366 3091 1809 3091 
Q 1391 3091 1200 2747 
Q 959 2316 959 1747 
Q 959 1059 1194 731 
Q 1431 397 1809 397 
Q 2228 397 2453 1063 
L 2644 1628 
z
M 2966 2584 
L 3275 3500 
L 3788 3500 
L 3147 1603 
L 3272 919 
Q 3300 766 3409 638 
Q 3538 488 3638 488 
L 3913 488 
L 3913 0 
L 3569 0 
Q 3275 0 3013 263 
Q 2884 394 2831 669 
Q 2688 322 2394 50 
Q 2256 -78 1809 -78 
Q 1075 -78 719 397 
Q 353 888 353 1747 
Q 353 2666 750 3097 
Q 1191 3578 1809 3578 
Q 2781 3578 2966 2584 
z
" transform="scale(0.015625)"/>
       <path id="DejaVuSans-3c3" d="M 1959 3044 
Q 1484 3044 1228 2700 
Q 959 2341 959 1747 
Q 959 1119 1226 758 
Q 1494 397 1959 397 
Q 2419 397 2687 759 
Q 2956 1122 2956 1747 
Q 2956 2319 2688 2700 
Q 2441 3044 1959 3044 
z
M 1959 3500 
L 3869 3500 
L 3869 2925 
L 3225 2925 
Q 3566 2438 3566 1747 
Q 3566 888 3138 400 
Q 2709 -91 1959 -91 
Q 1206 -91 781 400 
Q 353 888 353 1747 
Q 353 2613 781 3097 
Q 1134 3500 1959 3500 
z
" transform="scale(0.015625)"/>
       <path id="DejaVuSans-3b7" d="M 3513 2113 
L 3513 -1331 
L 2938 -1331 
L 2938 2094 
Q 2938 2591 2744 2837 
Q 2550 3084 2163 3084 
Q 1697 3084 1428 2787 
Q 1159 2491 1159 1978 
L 1159 0 
L 581 0 
L 581 3500 
L 1159 3500 
L 1159 2956 
Q 1366 3272 1644 3428 
Q 1925 3584 2291 3584 
Q 2894 3584 3203 3213 
Q 3513 2838 3513 2113 
z
" transform="scale(0.015625)"/>
       <path id="DejaVuSans-3c2" d="M 2125 -91 
Q 1284 -91 818 406 
Q 353 903 353 1747 
Q 353 2603 823 3093 
Q 1294 3584 2113 3584 
Q 2378 3584 2631 3529 
Q 2884 3475 3122 3366 
L 3122 2828 
Q 2878 2963 2633 3030 
Q 2388 3097 2138 3097 
Q 1578 3097 1268 2742 
Q 959 2388 959 1747 
Q 959 1106 1268 751 
Q 1578 397 2125 397 
Q 2534 397 2784 159 
Q 3047 -88 3047 -463 
Q 3047 -822 2816 -1072 
Q 2566 -1344 2056 -1344 
Q 2056 -1109 2056 -872 
Q 2272 -888 2403 -750 
Q 2503 -641 2503 -525 
Q 2503 -359 2403 -222 
Q 2306 -91 2125 -91 
z
" transform="scale(0.015625)"/>
      </defs>
      <use xlink:href="#DejaVuSans-391"/>
      <use xlink:href="#DejaVuSans-2f" x="68.408203"/>
      <use xlink:href="#DejaVuSans-391" x="102.099609"/>
      <use xlink:href="#DejaVuSans-20" x="170.507812"/>
      <use xlink:href="#DejaVuSans-3c0" x="202.294922"/>
      <use xlink:href="#DejaVuSans-3c1" x="262.5"/>
      <use xlink:href="#DejaVuSans-3cc" x="325.976562"/>
      <use xlink:href="#DejaVuSans-3c4" x="387.158203"/>
      <use xlink:href="#DejaVuSans-3b1" x="447.363281"/>
      <use xlink:href="#DejaVuSans-3c3" x="513.28125"/>
      <use xlink:href="#DejaVuSans-3b7" x="576.660156"/>
      <use xlink:href="#DejaVuSans-3c2" x="640.039062"/>
     </g>
    </g>
   </g>
   <g id="matplotlib.axis_2">
    <g id="ytick_1">
     <g id="line2d_3">
      <path d="M 30.103125 299.998125 
L 588.103125 299.998125 
" clip-path="url(#p68e804dab3)" style="fill: none; stroke-dasharray: 2.96,1.28; stroke-dashoffset: 0; stroke: #b0b0b0; stroke-opacity: 0.25; stroke-width: 0.8"/>
     </g>
     <g id="line2d_4">
      <defs>
       <path id="m2bf8c9d102" d="M 0 0 
L -3.5 0 
" style="stroke: #000000; stroke-width: 0.8"/>
      </defs>
      <g>
       <use xlink:href="#m2bf8c9d102" x="30.103125" y="299.998125" style="stroke: #000000; stroke-width: 0.8"/>
      </g>
     </g>
     <g id="text_3">
      <!-- 0.0 -->
      <g transform="translate(7.2 303.797344) scale(0.1 -0.1)">
       <defs>
        <path id="DejaVuSans-30" d="M 2034 4250 
Q 1547 4250 1301 3770 
Q 1056 3291 1056 2328 
Q 1056 1369 1301 889 
Q 1547 409 2034 409 
Q 2525 409 2770 889 
Q 3016 1369 3016 2328 
Q 3016 3291 2770 3770 
Q 2525 4250 2034 4250 
z
M 2034 4750 
Q 2819 4750 3233 4129 
Q 3647 3509 3647 2328 
Q 3647 1150 3233 529 
Q 2819 -91 2034 -91 
Q 1250 -91 836 529 
Q 422 1150 422 2328 
Q 422 3509 836 4129 
Q 1250 4750 2034 4750 
z
" transform="scale(0.015625)"/>
        <path id="DejaVuSans-2e" d="M 684 794 
L 1344 794 
L 1344 0 
L 684 0 
L 684 794 
z
" transform="scale(0.015625)"/>
       </defs>
       <use xlink:href="#DejaVuSans-30"/>
       <use xlink:href="#DejaVuSans-2e" x="63.623047"/>
       <use xlink:href="#DejaVuSans-30" x="95.410156"/>
      </g>
     </g>
    </g>
    <g id="ytick_2">
     <g id="line2d_5">
      <path d="M 30.103125 253.213043 
L 588.103125 253.213043 
" clip-path="url(#p68e804dab3)" style="fill: none; stroke-dasharray: 2.96,1.28; stroke-dashoffset: 0; stroke: #b0b0b0; stroke-opacity: 0.25; stroke-width: 0.8"/>
     </g>
     <g id="line2d_6">
      <g>
       <use xlink:href="#m2bf8c9d102" x="30.103125" y="253.213043" style="stroke: #000000; stroke-width: 0.8"/>
      </g>
     </g>
     <g id="text_4">
      <!-- 0.1 -->
      <g transform="translate(7.2 257.012262) scale(0.1 -0.1)">
       <use xlink:href="#DejaVuSans-30"/>
       <use xlink:href="#DejaVuSans-2e" x="63.623047"/>
       <use xlink:href="#DejaVuSans-31" x="95.410156"/>
      </g>
     </g>
    </g>
    <g id="ytick_3">
     <g id="line2d_7">
      <path d="M 30.103125 206.427961 
L 588.103125 206.427961 
" clip-path="url(#p68e804dab3)" style="fill: none; stroke-dasharray: 2.96,1.28; stroke-dashoffset: 0; stroke: #b0b0b0; stroke-opacity: 0.25; stroke-width: 0.8"/>
     </g>
     <g id="line2d_8">
      <g>
       <use xlink:href="#m2bf8c9d102" x="30.103125" y="206.427961" style="stroke: #000000; stroke-width: 0.8"/>
      </g>
     </g>
     <g id="text_5">
      <!-- 0.2 -->
      <g transform="translate(7.2 210.22718) scale(0.1 -0.1)">
       <defs>
        <path id="DejaVuSans-32" d="M 1228 531 
L 3431 531 
L 3431 0 
L 469 0 
L 469 531 
Q 828 903 1448 1529 
Q 2069 2156 2228 2338 
Q 2531 2678 2651 2914 
Q 2772 3150 2772 3378 
Q 2772 3750 2511 3984 
Q 2250 4219 1831 4219 
Q 1534 4219 1204 4116 
Q 875 4013 500 3803 
L 500 4441 
Q 881 4594 1212 4672 
Q 1544 4750 1819 4750 
Q 2544 4750 2975 4387 
Q 3406 4025 3406 3419 
Q 3406 3131 3298 2873 
Q 3191 2616 2906 2266 
Q 2828 2175 2409 1742 
Q 1991 1309 1228 531 
z
" transform="scale(0.015625)"/>
       </defs>
       <use xlink:href="#DejaVuSans-30"/>
       <use xlink:href="#DejaVuSans-2e" x="63.623047"/>
       <use xlink:href="#DejaVuSans-32" x="95.410156"/>
      </g>
     </g>
    </g>
    <g id="ytick_4">
     <g id="line2d_9">
      <path d="M 30.103125 159.642879 
L 588.103125 159.642879 
" clip-path="url(#p68e804dab3)" style="fill: none; stroke-dasharray: 2.96,1.28; stroke-dashoffset: 0; stroke: #b0b0b0; stroke-opacity: 0.25; stroke-width: 0.8"/>
     </g>
     <g id="line2d_10">
      <g>
       <use xlink:href="#m2bf8c9d102" x="30.103125" y="159.642879" style="stroke: #000000; stroke-width: 0.8"/>
      </g>
     </g>
     <g id="text_6">
      <!-- 0.3 -->
      <g transform="translate(7.2 163.442098) scale(0.1 -0.1)">
       <defs>
        <path id="DejaVuSans-33" d="M 2597 2516 
Q 3050 2419 3304 2112 
Q 3559 1806 3559 1356 
Q 3559 666 3084 287 
Q 2609 -91 1734 -91 
Q 1441 -91 1130 -33 
Q 819 25 488 141 
L 488 750 
Q 750 597 1062 519 
Q 1375 441 1716 441 
Q 2309 441 2620 675 
Q 2931 909 2931 1356 
Q 2931 1769 2642 2001 
Q 2353 2234 1838 2234 
L 1294 2234 
L 1294 2753 
L 1863 2753 
Q 2328 2753 2575 2939 
Q 2822 3125 2822 3475 
Q 2822 3834 2567 4026 
Q 2313 4219 1838 4219 
Q 1578 4219 1281 4162 
Q 984 4106 628 3988 
L 628 4550 
Q 988 4650 1302 4700 
Q 1616 4750 1894 4750 
Q 2613 4750 3031 4423 
Q 3450 4097 3450 3541 
Q 3450 3153 3228 2886 
Q 3006 2619 2597 2516 
z
" transform="scale(0.015625)"/>
       </defs>
       <use xlink:href="#DejaVuSans-30"/>
       <use xlink:href="#DejaVuSans-2e" x="63.623047"/>
       <use xlink:href="#DejaVuSans-33" x="95.410156"/>
      </g>
     </g>
    </g>
    <g id="ytick_5">
     <g id="line2d_11">
      <path d="M 30.103125 112.857797 
L 588.103125 112.857797 
" clip-path="url(#p68e804dab3)" style="fill: none; stroke-dasharray: 2.96,1.28; stroke-dashoffset: 0; stroke: #b0b0b0; stroke-opacity: 0.25; stroke-width: 0.8"/>
     </g>
     <g id="line2d_12">
      <g>
       <use xlink:href="#m2bf8c9d102" x="30.103125" y="112.857797" style="stroke: #000000; stroke-width: 0.8"/>
      </g>
     </g>
     <g id="text_7">
      <!-- 0.4 -->
      <g transform="translate(7.2 116.657016) scale(0.1 -0.1)">
       <defs>
        <path id="DejaVuSans-34" d="M 2419 4116 
L 825 1625 
L 2419 1625 
L 2419 4116 
z
M 2253 4666 
L 3047 4666 
L 3047 1625 
L 3713 1625 
L 3713 1100 
L 3047 1100 
L 3047 0 
L 2419 0 
L 2419 1100 
L 313 1100 
L 313 1709 
L 2253 4666 
z
" transform="scale(0.015625)"/>
       </defs>
       <use xlink:href="#DejaVuSans-30"/>
       <use xlink:href="#DejaVuSans-2e" x="63.623047"/>
       <use xlink:href="#DejaVuSans-34" x="95.410156"/>
      </g>
     </g>
    </g>
    <g id="ytick_6">
     <g id="line2d_13">
      <path d="M 30.103125 66.072715 
L 588.103125 66.072715 
" clip-path="url(#p68e804dab3)" style="fill: none; stroke-dasharray: 2.96,1.28; stroke-dashoffset: 0; stroke: #b0b0b0; stroke-opacity: 0.25; stroke-width: 0.8"/>
     </g>
     <g id="line2d_14">
      <g>
       <use xlink:href="#m2bf8c9d102" x="30.103125" y="66.072715" style="stroke: #000000; stroke-width: 0.8"/>
      </g>
     </g>
     <g id="text_8">
      <!-- 0.5 -->
      <g transform="translate(7.2 69.871934) scale(0.1 -0.1)">
       <defs>
        <path id="DejaVuSans-35" d="M 691 4666 
L 3169 4666 
L 3169 4134 
L 1269 4134 
L 1269 2991 
Q 1406 3038 1543 3061 
Q 1681 3084 1819 3084 
Q 2600 3084 3056 2656 
Q 3513 2228 3513 1497 
Q 3513 744 3044 326 
Q 2575 -91 1722 -91 
Q 1428 -91 1123 -41 
Q 819 9 494 109 
L 494 744 
Q 775 591 1075 516 
Q 1375 441 1709 441 
Q 2250 441 2565 725 
Q 2881 1009 2881 1497 
Q 2881 1984 2565 2268 
Q 2250 2553 1709 2553 
Q 1456 2553 1204 2497 
Q 953 2441 691 2322 
L 691 4666 
z
" transform="scale(0.015625)"/>
       </defs>
       <use xlink:href="#DejaVuSans-30"/>
       <use xlink:href="#DejaVuSans-2e" x="63.623047"/>
       <use xlink:href="#DejaVuSans-35" x="95.410156"/>
      </g>
     </g>
    </g>
   </g>
   <g id="patch_3">
    <path d="M 30.103125 299.998125 
L 30.103125 22.798125 
" style="fill: none; stroke: #000000; stroke-width: 0.8; stroke-linejoin: miter; stroke-linecap: square"/>
   </g>
   <g id="patch_4">
    <path d="M 588.103125 299.998125 
L 588.103125 22.798125 
" style="fill: none; stroke: #000000; stroke-width: 0.8; stroke-linejoin: miter; stroke-linecap: square"/>
   </g>
   <g id="patch_5">
    <path d="M 30.103125 299.998125 
L 588.103125 299.998125 
" style="fill: none; stroke: #000000; stroke-width: 0.8; stroke-linejoin: miter; stroke-linecap: square"/>
   </g>
   <g id="patch_6">
    <path d="M 30.103125 22.798125 
L 588.103125 22.798125 
" style="fill: none; stroke: #000000; stroke-width: 0.8; stroke-linejoin: miter; stroke-linecap: square"/>
   </g>
   <g id="patch_7">
    <path d="M 169.603125 299.998125 
L 309.103125 299.998125 
L 309.103125 108.604608 
L 169.603125 108.604608 
z
" clip-path="url(#p68e804dab3)" style="fill: #a52040"/>
   </g>
   <g id="patch_8">
    <path d="M 309.103125 299.998125 
L 448.603125 299.998125 
L 448.603125 66.072715 
L 309.103125 66.072715 
z
" clip-path="url(#p68e804dab3)" style="fill: #404080"/>
   </g>
   <g id="text_9">
    <!-- Μέση διαφορά στη χρήση των μερών του λόγου -->
    <g transform="translate(164.875312 16.798125) scale(0.12 -0.12)">
     <defs>
      <path id="DejaVuSans-39c" d="M 628 4666 
L 1569 4666 
L 2759 1491 
L 3956 4666 
L 4897 4666 
L 4897 0 
L 4281 0 
L 4281 4097 
L 3078 897 
L 2444 897 
L 1241 4097 
L 1241 0 
L 628 0 
L 628 4666 
z
" transform="scale(0.015625)"/>
      <path id="DejaVuSans-3ad" d="M 2282 5119 
L 2904 5119 
L 1886 3944 
L 1407 3944 
L 2282 5119 
z
M 1234 1888 
Q 884 1963 697 2166 
Q 509 2366 509 2656 
Q 509 3097 866 3344 
Q 1219 3588 1831 3588 
Q 2069 3588 2334 3550 
Q 2600 3513 2906 3438 
L 2906 2916 
Q 2603 3006 2353 3047 
Q 2100 3088 1878 3088 
Q 1506 3088 1291 2944 
Q 1072 2800 1072 2600 
Q 1072 2381 1284 2241 
Q 1494 2103 1856 2103 
L 2341 2103 
L 2341 1628 
L 1878 1628 
Q 1450 1628 1225 1469 
Q 981 1294 981 1019 
Q 981 738 1244 563 
Q 1509 388 1981 388 
Q 2272 388 2538 444 
Q 2803 503 3025 619 
L 3025 84 
Q 2744 -3 2481 -47 
Q 2216 -91 1966 -91 
Q 1222 -91 819 194 
Q 416 478 416 1019 
Q 416 1356 631 1584 
Q 847 1813 1234 1888 
z
" transform="scale(0.015625)"/>
      <path id="DejaVuSans-3b4" d="M 3138 4053 
Q 2819 4272 2072 4272 
Q 1281 4272 1281 3906 
Q 1281 3619 2106 3469 
Q 2756 3353 3122 3003 
Q 3566 2581 3566 1716 
Q 3566 888 3138 400 
Q 2709 -91 1959 -91 
Q 1213 -91 781 400 
Q 353 888 353 1747 
Q 353 2384 781 2900 
Q 947 3100 1181 3213 
Q 694 3459 694 3900 
Q 694 4750 2072 4750 
Q 2763 4750 3138 4531 
L 3138 4053 
z
M 1613 3056 
Q 1400 2966 1228 2738 
Q 959 2384 959 1747 
Q 959 1113 1225 756 
Q 1494 397 1959 397 
Q 2419 397 2687 759 
Q 2956 1122 2956 1716 
Q 2956 2338 2672 2638 
Q 2369 2959 1975 2994 
Q 1775 3013 1613 3056 
z
" transform="scale(0.015625)"/>
      <path id="DejaVuSans-3b9" d="M 1109 3500 
L 1109 1234 
Q 1109 781 1216 638 
Q 1328 488 1666 488 
L 1944 488 
L 1944 0 
L 1597 0 
Q 1034 0 778 300 
Q 522 606 522 1269 
L 519 3500 
L 1109 3500 
z
" transform="scale(0.015625)"/>
      <path id="DejaVuSans-3c6" d="M 2591 3034 
Q 2388 3034 2388 2581 
L 2388 438 
Q 2684 438 2981 763 
Q 3247 1053 3247 1750 
Q 3247 2400 2978 2750 
Q 2759 3034 2591 3034 
z
M 2591 3525 
Q 3028 3525 3425 3113 
Q 3853 2672 3853 1750 
Q 3853 903 3425 400 
Q 3022 -75 2388 -75 
L 2388 -1331 
L 1816 -1331 
L 1816 -78 
Q 1194 -78 775 400 
Q 350 888 350 1747 
Q 350 2641 775 3097 
Q 1094 3438 1613 3525 
L 1613 3016 
Q 1406 2944 1225 2700 
Q 956 2341 956 1747 
Q 956 1116 1225 756 
Q 1466 434 1816 434 
L 1816 2581 
Q 1816 3525 2591 3525 
z
" transform="scale(0.015625)"/>
      <path id="DejaVuSans-3bf" d="M 1959 3097 
Q 1497 3097 1228 2736 
Q 959 2375 959 1747 
Q 959 1119 1226 758 
Q 1494 397 1959 397 
Q 2419 397 2687 759 
Q 2956 1122 2956 1747 
Q 2956 2369 2687 2733 
Q 2419 3097 1959 3097 
z
M 1959 3584 
Q 2709 3584 3137 3096 
Q 3566 2609 3566 1747 
Q 3566 888 3137 398 
Q 2709 -91 1959 -91 
Q 1206 -91 779 398 
Q 353 888 353 1747 
Q 353 2609 779 3096 
Q 1206 3584 1959 3584 
z
" transform="scale(0.015625)"/>
      <path id="DejaVuSans-3ac" d="M 2644 1628 
L 2506 2350 
Q 2366 3091 1809 3091 
Q 1391 3091 1200 2747 
Q 959 2316 959 1747 
Q 959 1059 1194 731 
Q 1431 397 1809 397 
Q 2228 397 2453 1063 
L 2644 1628 
z
M 2966 2584 
L 3275 3500 
L 3788 3500 
L 3147 1603 
L 3272 919 
Q 3300 766 3409 638 
Q 3538 488 3638 488 
L 3913 488 
L 3913 0 
L 3569 0 
Q 3275 0 3013 263 
Q 2884 394 2831 669 
Q 2688 322 2394 50 
Q 2256 -78 1809 -78 
Q 1075 -78 719 397 
Q 353 888 353 1747 
Q 353 2666 750 3097 
Q 1191 3578 1809 3578 
Q 2781 3578 2966 2584 
z
M 2378 5119 
L 3000 5119 
L 1982 3944 
L 1503 3944 
L 2378 5119 
z
" transform="scale(0.015625)"/>
      <path id="DejaVuSans-3c7" d="M 2288 -781 
L 1822 416 
L 863 -1334 
L 184 -1334 
L 1541 1141 
L 972 2613 
Q 819 3006 338 3006 
L 184 3006 
L 184 3500 
L 403 3494 
Q 1209 3472 1413 2950 
L 1875 1753 
L 2834 3503 
L 3513 3503 
L 2156 1028 
L 2725 -444 
Q 2878 -838 3359 -838 
L 3513 -838 
L 3513 -1331 
L 3294 -1325 
Q 2488 -1303 2288 -781 
z
" transform="scale(0.015625)"/>
      <path id="DejaVuSans-3ae" d="M 2650 5119 
L 3272 5119 
L 2254 3944 
L 1775 3944 
L 2650 5119 
z
M 3513 2113 
L 3513 -1331 
L 2938 -1331 
L 2938 2094 
Q 2938 2591 2744 2837 
Q 2550 3084 2163 3084 
Q 1697 3084 1428 2787 
Q 1159 2491 1159 1978 
L 1159 0 
L 581 0 
L 581 3500 
L 1159 3500 
L 1159 2956 
Q 1366 3272 1644 3428 
Q 1925 3584 2291 3584 
Q 2894 3584 3203 3213 
Q 3513 2838 3513 2113 
z
" transform="scale(0.015625)"/>
      <path id="DejaVuSans-3c9" d="M 1719 -91 
Q 422 -91 422 1766 
Q 422 2500 906 3500 
L 1525 3500 
Q 1078 2500 1078 1750 
Q 1078 397 1772 397 
Q 2406 397 2406 2078 
L 2938 2078 
Q 2938 397 3572 397 
Q 4266 397 4266 1750 
Q 4266 2500 3819 3500 
L 4438 3500 
Q 4922 2500 4922 1766 
Q 4922 -91 3625 -91 
Q 2775 -91 2672 844 
Q 2544 -91 1719 -91 
z
" transform="scale(0.015625)"/>
      <path id="DejaVuSans-3bd" d="M 1300 0 
L 231 3500 
L 850 3500 
L 1753 563 
Q 2128 950 2441 1488 
Q 2678 1891 2691 2241 
Q 2697 2406 2622 2719 
Q 2534 3091 2203 3500 
L 2784 3500 
L 2784 3500 
Q 3000 3222 3144 2834 
Q 3275 2478 3275 2234 
Q 3275 1622 2850 1075 
Q 2297 363 1913 0 
L 1300 0 
z
" transform="scale(0.015625)"/>
      <path id="DejaVuSans-3bc" d="M 544 -1331 
L 544 3500 
L 1119 3500 
L 1119 1325 
Q 1119 872 1334 640 
Q 1550 409 1972 409 
Q 2434 409 2667 671 
Q 2900 934 2900 1459 
L 2900 3500 
L 3475 3500 
L 3475 806 
Q 3475 619 3529 530 
Q 3584 441 3700 441 
Q 3728 441 3778 458 
Q 3828 475 3916 513 
L 3916 50 
Q 3788 -22 3673 -56 
Q 3559 -91 3450 -91 
Q 3234 -91 3106 31 
Q 2978 153 2931 403 
Q 2775 156 2548 32 
Q 2322 -91 2016 -91 
Q 1697 -91 1473 31 
Q 1250 153 1119 397 
L 1119 -1331 
L 544 -1331 
z
" transform="scale(0.015625)"/>
      <path id="DejaVuSans-3b5" d="M 1234 1888 
Q 884 1963 697 2166 
Q 509 2366 509 2656 
Q 509 3097 866 3344 
Q 1219 3588 1831 3588 
Q 2069 3588 2334 3550 
Q 2600 3513 2906 3438 
L 2906 2916 
Q 2603 3006 2353 3047 
Q 2100 3088 1878 3088 
Q 1506 3088 1291 2944 
Q 1072 2800 1072 2600 
Q 1072 2381 1284 2241 
Q 1494 2103 1856 2103 
L 2341 2103 
L 2341 1628 
L 1878 1628 
Q 1450 1628 1225 1469 
Q 981 1294 981 1019 
Q 981 738 1244 563 
Q 1509 388 1981 388 
Q 2272 388 2538 444 
Q 2803 503 3025 619 
L 3025 84 
Q 2744 -3 2481 -47 
Q 2216 -91 1966 -91 
Q 1222 -91 819 194 
Q 416 478 416 1019 
Q 416 1356 631 1584 
Q 847 1813 1234 1888 
z
" transform="scale(0.015625)"/>
      <path id="DejaVuSans-3ce" d="M 1719 -91 
Q 422 -91 422 1766 
Q 422 2500 906 3500 
L 1525 3500 
Q 1078 2500 1078 1750 
Q 1078 397 1772 397 
Q 2406 397 2406 2078 
L 2938 2078 
Q 2938 397 3572 397 
Q 4266 397 4266 1750 
Q 4266 2500 3819 3500 
L 4438 3500 
Q 4922 2500 4922 1766 
Q 4922 -91 3625 -91 
Q 2775 -91 2672 844 
Q 2544 -91 1719 -91 
z
M 3114 5119 
L 3736 5119 
L 2718 3944 
L 2239 3944 
L 3114 5119 
z
" transform="scale(0.015625)"/>
      <path id="DejaVuSans-3c5" d="M 1056 3500 
L 1056 1234 
Q 1056 813 1213 613 
Q 1384 397 1719 397 
Q 2188 397 2516 1047 
Q 2700 1416 2747 2000 
Q 2772 2319 2678 2719 
Q 2591 3091 2259 3500 
L 2841 3500 
L 2841 3500 
Q 3059 3219 3200 2834 
Q 3331 2475 3331 1994 
Q 3331 1203 2931 619 
Q 2444 -94 1650 -91 
Q 1091 -91 775 284 
Q 469 653 469 1269 
L 466 3500 
L 1056 3500 
z
" transform="scale(0.015625)"/>
      <path id="DejaVuSans-3bb" d="M 1981 4316 
L 3597 0 
L 2988 0 
L 2006 2588 
L 800 0 
L 191 0 
L 1725 3356 
L 1494 3975 
Q 1347 4369 1013 4369 
L 713 4369 
L 713 4863 
L 1078 4856 
Q 1784 4847 1981 4316 
z
" transform="scale(0.015625)"/>
      <path id="DejaVuSans-3b3" d="M 1128 2950 
L 1894 788 
L 2988 3500 
L 3597 3500 
L 2181 0 
L 2181 -1331 
L 1606 -1331 
L 1606 0 
L 688 2613 
Q 550 3006 253 3006 
L 100 3006 
L 100 3500 
L 319 3500 
Q 934 3500 1128 2950 
z
" transform="scale(0.015625)"/>
     </defs>
     <use xlink:href="#DejaVuSans-39c"/>
     <use xlink:href="#DejaVuSans-3ad" x="86.279297"/>
     <use xlink:href="#DejaVuSans-3c3" x="140.332031"/>
     <use xlink:href="#DejaVuSans-3b7" x="203.710938"/>
     <use xlink:href="#DejaVuSans-20" x="267.089844"/>
     <use xlink:href="#DejaVuSans-3b4" x="298.876953"/>
     <use xlink:href="#DejaVuSans-3b9" x="360.058594"/>
     <use xlink:href="#DejaVuSans-3b1" x="393.896484"/>
     <use xlink:href="#DejaVuSans-3c6" x="459.814453"/>
     <use xlink:href="#DejaVuSans-3bf" x="525.78125"/>
     <use xlink:href="#DejaVuSans-3c1" x="586.962891"/>
     <use xlink:href="#DejaVuSans-3ac" x="650.439453"/>
     <use xlink:href="#DejaVuSans-20" x="716.357422"/>
     <use xlink:href="#DejaVuSans-3c3" x="748.144531"/>
     <use xlink:href="#DejaVuSans-3c4" x="811.523438"/>
     <use xlink:href="#DejaVuSans-3b7" x="871.728516"/>
     <use xlink:href="#DejaVuSans-20" x="935.107422"/>
     <use xlink:href="#DejaVuSans-3c7" x="966.894531"/>
     <use xlink:href="#DejaVuSans-3c1" x="1024.658203"/>
     <use xlink:href="#DejaVuSans-3ae" x="1088.134766"/>
     <use xlink:href="#DejaVuSans-3c3" x="1151.513672"/>
     <use xlink:href="#DejaVuSans-3b7" x="1214.892578"/>
     <use xlink:href="#DejaVuSans-20" x="1278.271484"/>
     <use xlink:href="#DejaVuSans-3c4" x="1310.058594"/>
     <use xlink:href="#DejaVuSans-3c9" x="1370.263672"/>
     <use xlink:href="#DejaVuSans-3bd" x="1454.003906"/>
     <use xlink:href="#DejaVuSans-20" x="1509.863281"/>
     <use xlink:href="#DejaVuSans-3bc" x="1541.650391"/>
     <use xlink:href="#DejaVuSans-3b5" x="1605.273438"/>
     <use xlink:href="#DejaVuSans-3c1" x="1659.326172"/>
     <use xlink:href="#DejaVuSans-3ce" x="1722.802734"/>
     <use xlink:href="#DejaVuSans-3bd" x="1806.542969"/>
     <use xlink:href="#DejaVuSans-20" x="1862.402344"/>
     <use xlink:href="#DejaVuSans-3c4" x="1894.189453"/>
     <use xlink:href="#DejaVuSans-3bf" x="1954.394531"/>
     <use xlink:href="#DejaVuSans-3c5" x="2015.576172"/>
     <use xlink:href="#DejaVuSans-20" x="2073.4375"/>
     <use xlink:href="#DejaVuSans-3bb" x="2105.224609"/>
     <use xlink:href="#DejaVuSans-3cc" x="2164.404297"/>
     <use xlink:href="#DejaVuSans-3b3" x="2225.585938"/>
     <use xlink:href="#DejaVuSans-3bf" x="2284.765625"/>
     <use xlink:href="#DejaVuSans-3c5" x="2345.947266"/>
    </g>
   </g>
   <g id="LineCollection_1">
    <path d="M 239.353125 138.679197 
L 239.353125 78.530018 
" clip-path="url(#p68e804dab3)" style="fill: none; stroke: #b4b446; stroke-width: 1.5"/>
   </g>
   <g id="line2d_15">
    <defs>
     <path id="mca8f5dcc53" d="M 5 0 
L -5 -0 
" style="stroke: #b4b446"/>
    </defs>
    <g clip-path="url(#p68e804dab3)">
     <use xlink:href="#mca8f5dcc53" x="239.353125" y="138.679197" style="fill: #b4b446; stroke: #b4b446"/>
    </g>
   </g>
   <g id="line2d_16">
    <g clip-path="url(#p68e804dab3)">
     <use xlink:href="#mca8f5dcc53" x="239.353125" y="78.530018" style="fill: #b4b446; stroke: #b4b446"/>
    </g>
   </g>
   <g id="LineCollection_2">
    <path d="M 378.853125 96.147305 
L 378.853125 35.998125 
" clip-path="url(#p68e804dab3)" style="fill: none; stroke: #b4b446; stroke-width: 1.5"/>
   </g>
   <g id="line2d_17">
    <g clip-path="url(#p68e804dab3)">
     <use xlink:href="#mca8f5dcc53" x="378.853125" y="96.147305" style="fill: #b4b446; stroke: #b4b446"/>
    </g>
   </g>
   <g id="line2d_18">
    <g clip-path="url(#p68e804dab3)">
     <use xlink:href="#mca8f5dcc53" x="378.853125" y="35.998125" style="fill: #b4b446; stroke: #b4b446"/>
    </g>
   </g>
   <g id="legend_1">
    <g id="patch_9">
     <path d="M 497.367188 60.954375 
L 581.103125 60.954375 
Q 583.103125 60.954375 583.103125 58.954375 
L 583.103125 29.798125 
Q 583.103125 27.798125 581.103125 27.798125 
L 497.367188 27.798125 
Q 495.367188 27.798125 495.367188 29.798125 
L 495.367188 58.954375 
Q 495.367188 60.954375 497.367188 60.954375 
z
" style="fill: #ffffff; opacity: 0.8; stroke: #cccccc; stroke-linejoin: miter"/>
    </g>
    <g id="patch_10">
     <path d="M 499.367188 39.796562 
L 519.367188 39.796562 
L 519.367188 32.796562 
L 499.367188 32.796562 
z
" style="fill: #a52040"/>
    </g>
    <g id="text_10">
     <!-- Γερμανικά -->
     <g transform="translate(527.367188 39.796562) scale(0.1 -0.1)">
      <defs>
       <path id="DejaVuSans-393" d="M 628 0 
L 628 4666 
L 3531 4666 
L 3531 4134 
L 1259 4134 
L 1259 0 
L 628 0 
z
" transform="scale(0.015625)"/>
       <path id="DejaVuSans-3ba" d="M 597 3500 
L 1191 3500 
L 1191 2047 
L 2700 3500 
L 3400 3500 
L 2022 2181 
L 3616 0 
L 2913 0 
L 1619 1806 
L 1191 1403 
L 1191 0 
L 597 0 
L 597 3500 
z
" transform="scale(0.015625)"/>
      </defs>
      <use xlink:href="#DejaVuSans-393"/>
      <use xlink:href="#DejaVuSans-3b5" x="55.712891"/>
      <use xlink:href="#DejaVuSans-3c1" x="109.765625"/>
      <use xlink:href="#DejaVuSans-3bc" x="173.242188"/>
      <use xlink:href="#DejaVuSans-3b1" x="236.865234"/>
      <use xlink:href="#DejaVuSans-3bd" x="302.783203"/>
      <use xlink:href="#DejaVuSans-3b9" x="358.642578"/>
      <use xlink:href="#DejaVuSans-3ba" x="392.480469"/>
      <use xlink:href="#DejaVuSans-3ac" x="451.416016"/>
     </g>
    </g>
    <g id="patch_11">
     <path d="M 499.367188 54.874687 
L 519.367188 54.874687 
L 519.367188 47.874687 
L 499.367188 47.874687 
z
" style="fill: #404080"/>
    </g>
    <g id="text_11">
     <!-- Ελληνικά -->
     <g transform="translate(527.367188 54.874687) scale(0.1 -0.1)">
      <defs>
       <path id="DejaVuSans-395" d="M 628 4666 
L 3578 4666 
L 3578 4134 
L 1259 4134 
L 1259 2753 
L 3481 2753 
L 3481 2222 
L 1259 2222 
L 1259 531 
L 3634 531 
L 3634 0 
L 628 0 
L 628 4666 
z
" transform="scale(0.015625)"/>
      </defs>
      <use xlink:href="#DejaVuSans-395"/>
      <use xlink:href="#DejaVuSans-3bb" x="63.183594"/>
      <use xlink:href="#DejaVuSans-3bb" x="122.363281"/>
      <use xlink:href="#DejaVuSans-3b7" x="181.542969"/>
      <use xlink:href="#DejaVuSans-3bd" x="244.921875"/>
      <use xlink:href="#DejaVuSans-3b9" x="300.78125"/>
      <use xlink:href="#DejaVuSans-3ba" x="334.619141"/>
      <use xlink:href="#DejaVuSans-3ac" x="393.554688"/>
     </g>
    </g>
   </g>
  </g>
 </g>
 <defs>
  <clipPath id="p68e804dab3">
   <rect x="30.103125" y="22.798125" width="558" height="277.2"/>
  </clipPath>
 </defs>
</svg>
